<mxfile host="app.diagrams.net" modified="2021-02-07T16:51:22.615Z" agent="5.0 (Windows NT 10.0; Win64; x64) AppleWebKit/537.36 (KHTML, like Gecko) Chrome/87.0.4280.141 Safari/537.36 OPR/73.0.3856.344" etag="xuHLiIRWq_47rkMaYIo6" version="14.2.9" type="github">
  <diagram id="C5RBs43oDa-KdzZeNtuy" name="Page-1">
    <mxGraphModel dx="998" dy="580" grid="1" gridSize="10" guides="1" tooltips="1" connect="1" arrows="1" fold="1" page="1" pageScale="1" pageWidth="827" pageHeight="1169" math="0" shadow="0">
      <root>
        <mxCell id="WIyWlLk6GJQsqaUBKTNV-0" />
        <mxCell id="WIyWlLk6GJQsqaUBKTNV-1" parent="WIyWlLk6GJQsqaUBKTNV-0" />
        <mxCell id="thmgi7zNe5c0mxrhxPMU-1" value="Knoten" style="swimlane;fontStyle=1;align=center;verticalAlign=top;childLayout=stackLayout;horizontal=1;startSize=26;horizontalStack=0;resizeParent=1;resizeParentMax=0;resizeLast=0;collapsible=1;marginBottom=0;" parent="WIyWlLk6GJQsqaUBKTNV-1" vertex="1">
          <mxGeometry x="600" y="150" width="160" height="190" as="geometry" />
        </mxCell>
        <mxCell id="thmgi7zNe5c0mxrhxPMU-2" value="ID: int&#xa;Koordinaten: [float,float]&#xa;startKoord: [float,float]&#xa;Zustand: [0,0,1]&#xa;Verbindungen: [[Knoten, int], etc.]&#xa;Bedingungen: string&#xa;moveVec: [float,float]" style="text;strokeColor=none;fillColor=none;align=left;verticalAlign=top;spacingLeft=4;spacingRight=4;overflow=hidden;rotatable=0;points=[[0,0.5],[1,0.5]];portConstraint=eastwest;" parent="thmgi7zNe5c0mxrhxPMU-1" vertex="1">
          <mxGeometry y="26" width="160" height="114" as="geometry" />
        </mxCell>
        <mxCell id="thmgi7zNe5c0mxrhxPMU-3" value="" style="line;strokeWidth=1;fillColor=none;align=left;verticalAlign=middle;spacingTop=-1;spacingLeft=3;spacingRight=3;rotatable=0;labelPosition=right;points=[];portConstraint=eastwest;" parent="thmgi7zNe5c0mxrhxPMU-1" vertex="1">
          <mxGeometry y="140" width="160" height="10" as="geometry" />
        </mxCell>
        <mxCell id="thmgi7zNe5c0mxrhxPMU-4" value="distance(Knoten): float&#xa;actual_connect(): void" style="text;strokeColor=none;fillColor=none;align=left;verticalAlign=top;spacingLeft=4;spacingRight=4;overflow=hidden;rotatable=0;points=[[0,0.5],[1,0.5]];portConstraint=eastwest;" parent="thmgi7zNe5c0mxrhxPMU-1" vertex="1">
          <mxGeometry y="150" width="160" height="40" as="geometry" />
        </mxCell>
        <mxCell id="thmgi7zNe5c0mxrhxPMU-6" value="Utility" style="swimlane;fontStyle=1;align=center;verticalAlign=top;childLayout=stackLayout;horizontal=1;startSize=26;horizontalStack=0;resizeParent=1;resizeParentMax=0;resizeLast=0;collapsible=1;marginBottom=0;" parent="WIyWlLk6GJQsqaUBKTNV-1" vertex="1">
          <mxGeometry x="20" y="370" width="250" height="80" as="geometry" />
        </mxCell>
        <mxCell id="thmgi7zNe5c0mxrhxPMU-8" value="" style="line;strokeWidth=1;fillColor=none;align=left;verticalAlign=middle;spacingTop=-1;spacingLeft=3;spacingRight=3;rotatable=0;labelPosition=right;points=[];portConstraint=eastwest;" parent="thmgi7zNe5c0mxrhxPMU-6" vertex="1">
          <mxGeometry y="26" width="250" height="8" as="geometry" />
        </mxCell>
        <mxCell id="thmgi7zNe5c0mxrhxPMU-9" value="cptv(path,path,int): video&#xa;do_they_intersect(float,float,float,float): bool" style="text;strokeColor=none;fillColor=none;align=left;verticalAlign=top;spacingLeft=4;spacingRight=4;overflow=hidden;rotatable=0;points=[[0,0.5],[1,0.5]];portConstraint=eastwest;" parent="thmgi7zNe5c0mxrhxPMU-6" vertex="1">
          <mxGeometry y="34" width="250" height="46" as="geometry" />
        </mxCell>
        <mxCell id="thmgi7zNe5c0mxrhxPMU-10" value="Simulation" style="swimlane;fontStyle=1;align=center;verticalAlign=top;childLayout=stackLayout;horizontal=1;startSize=26;horizontalStack=0;resizeParent=1;resizeParentMax=0;resizeLast=0;collapsible=1;marginBottom=0;" parent="WIyWlLk6GJQsqaUBKTNV-1" vertex="1">
          <mxGeometry x="330" y="55" width="190" height="380" as="geometry" />
        </mxCell>
        <mxCell id="thmgi7zNe5c0mxrhxPMU-11" value="nodes: [Knoten]&#xa;flowchart: Numpyarray&#xa;canvas = [int,int]&#xa;resolution = [int,int]&#xa;nodeRadius: float&#xa;colours: [string]&#xa;links = [Knoten,Knoten,float]&#xa;speed: float&#xa;fps: int&#xa;frames = int&#xa;barriers = [[float,float],[float,float]]&#xa;maxDist: float&#xa;movementRadius: float&#xa;barrierColour: string&#xa;barrierWidth: int&#xa;connecColour: string&#xa;connecWidth: int" style="text;strokeColor=none;fillColor=none;align=left;verticalAlign=top;spacingLeft=4;spacingRight=4;overflow=hidden;rotatable=0;points=[[0,0.5],[1,0.5]];portConstraint=eastwest;" parent="thmgi7zNe5c0mxrhxPMU-10" vertex="1">
          <mxGeometry y="26" width="190" height="254" as="geometry" />
        </mxCell>
        <mxCell id="thmgi7zNe5c0mxrhxPMU-12" value="" style="line;strokeWidth=1;fillColor=none;align=left;verticalAlign=middle;spacingTop=-1;spacingLeft=3;spacingRight=3;rotatable=0;labelPosition=right;points=[];portConstraint=eastwest;" parent="thmgi7zNe5c0mxrhxPMU-10" vertex="1">
          <mxGeometry y="280" width="190" height="8" as="geometry" />
        </mxCell>
        <mxCell id="thmgi7zNe5c0mxrhxPMU-13" value="addRandomNode(int,[0,0,1]): void&#xa;distance(Knoten,Knoten): float&#xa;generate_connections(): void&#xa;visualise(): Pillow-Image&#xa;run(int): void" style="text;strokeColor=none;fillColor=none;align=left;verticalAlign=top;spacingLeft=4;spacingRight=4;overflow=hidden;rotatable=0;points=[[0,0.5],[1,0.5]];portConstraint=eastwest;" parent="thmgi7zNe5c0mxrhxPMU-10" vertex="1">
          <mxGeometry y="288" width="190" height="92" as="geometry" />
        </mxCell>
        <mxCell id="0rOTwANMzdD3u249tQUZ-1" style="edgeStyle=orthogonalEdgeStyle;rounded=0;orthogonalLoop=1;jettySize=auto;html=1;exitX=0;exitY=0.5;exitDx=0;exitDy=0;entryX=1;entryY=0.5;entryDx=0;entryDy=0;" edge="1" parent="WIyWlLk6GJQsqaUBKTNV-1" source="thmgi7zNe5c0mxrhxPMU-11" target="thmgi7zNe5c0mxrhxPMU-9">
          <mxGeometry relative="1" as="geometry" />
        </mxCell>
        <mxCell id="0rOTwANMzdD3u249tQUZ-4" value="1" style="endArrow=open;html=1;endSize=12;startArrow=diamondThin;startSize=14;startFill=1;align=left;verticalAlign=bottom;entryX=0;entryY=0.5;entryDx=0;entryDy=0;edgeStyle=orthogonalEdgeStyle;" edge="1" parent="WIyWlLk6GJQsqaUBKTNV-1" target="thmgi7zNe5c0mxrhxPMU-2">
          <mxGeometry x="-1" y="3" relative="1" as="geometry">
            <mxPoint x="520" y="210" as="sourcePoint" />
            <mxPoint x="660" y="210" as="targetPoint" />
            <Array as="points">
              <mxPoint x="560" y="210" />
              <mxPoint x="560" y="233" />
            </Array>
          </mxGeometry>
        </mxCell>
      </root>
    </mxGraphModel>
  </diagram>
</mxfile>
